HIERARCHY
ROOT Hips
{
	OFFSET 0.000000 0.000000 0.000000 
	CHANNELS 6 Xposition Yposition Zposition Zrotation Yrotation Xrotation
	JOINT LeftUpLeg
	{
		OFFSET 1.363060 -1.794630 0.839290 
		CHANNELS 3 Zrotation Yrotation Xrotation
		JOINT LeftLeg
		{
			OFFSET 2.448110 -6.726130 0.000000 
			CHANNELS 3 Zrotation Yrotation Xrotation
			JOINT LeftFoot
			{
				OFFSET 2.562200 -7.039590 0.000000 
				CHANNELS 3 Zrotation Yrotation Xrotation
				JOINT LeftToeBase
				{
					OFFSET 0.157640 -0.433110 2.322550 
					CHANNELS 3 Zrotation Yrotation Xrotation
					End Site
					{
						OFFSET 0.000000 0.000000 0.000000 
					}
				}
			}
		}
	}
	JOINT RightUpLeg
	{
		OFFSET -1.305520 -1.794630 0.839290 
		CHANNELS 3 Zrotation Yrotation Xrotation
		JOINT RightLeg
		{
			OFFSET -2.542530 -6.985550 0.000000 
			CHANNELS 3 Zrotation Yrotation Xrotation
			JOINT RightFoot
			{
				OFFSET -2.568260 -7.056230 0.000000 
				CHANNELS 3 Zrotation Yrotation Xrotation
				JOINT RightToeBase
				{
					OFFSET -0.164730 -0.452590 2.363150 
					CHANNELS 3 Zrotation Yrotation Xrotation
					End Site
					{
						OFFSET 0.000000 0.000000 0.000000 
					}
				}
			}
		}
	}
	JOINT Spine
	{
		OFFSET 0.028270 2.035590 -0.193380 
		CHANNELS 3 Zrotation Yrotation Xrotation
		JOINT Spine1
		{
			OFFSET 0.056720 2.048850 -0.042750 
			CHANNELS 3 Zrotation Yrotation Xrotation
			JOINT Neck1
			{
				OFFSET -0.054170 1.746240 0.172020 
				CHANNELS 3 Zrotation Yrotation Xrotation
				JOINT Head
				{
					OFFSET 0.104070 1.761360 -0.123970 
					CHANNELS 3 Zrotation Yrotation Xrotation
					End Site
					{
						OFFSET 0.000000 0.000000 0.000000 
					}
				}
			}
			JOINT LeftArm
			{
				OFFSET 3.362410 1.200890 -0.311210 
				CHANNELS 3 Zrotation Yrotation Xrotation
				JOINT LeftForeArm
				{
					OFFSET 4.983000 -0.000000 -0.000000 
					CHANNELS 3 Zrotation Yrotation Xrotation
					JOINT LeftHand
					{
						OFFSET 3.483560 -0.000000 -0.000000 
						CHANNELS 3 Zrotation Yrotation Xrotation
						JOINT LeftHandIndex1
						{
							OFFSET 0.715260 -0.000000 -0.000000 
							CHANNELS 3 Zrotation Yrotation Xrotation
							End Site
							{
								OFFSET 0.000000 0.000000 0.000000 
							}
						}
					}
				}
			}
			JOINT RightArm
			{
				OFFSET -3.136600 1.374050 -0.404650 
				CHANNELS 3 Zrotation Yrotation Xrotation
				JOINT RightForeArm
				{
					OFFSET -5.241900 -0.000000 -0.000000 
					CHANNELS 3 Zrotation Yrotation Xrotation
					JOINT RightHand
					{
						OFFSET -3.444170 -0.000000 -0.000000 
						CHANNELS 3 Zrotation Yrotation Xrotation
						JOINT RightHandIndex1
						{
							OFFSET -0.622530 -0.000000 -0.000000 
							CHANNELS 3 Zrotation Yrotation Xrotation
							End Site
							{
								OFFSET 0.000000 0.000000 0.000000 
							}
						}
					}
				}
			}
		}
	}
}
MOTION
Frames: 12
Frame Time: 0.041667
8.933860 17.162407 -33.116366 13.705226 2.234687 10.965029 -28.978760 7.656475 -32.967903 4.408137 13.645003 42.409400 0.436513 -8.652307 0.579097 1.682700 -8.171400 -23.235900 -0.934093 8.690026 -34.385374 -6.228579 -16.231141 48.511136 -0.358765 -5.044857 -18.924526 -0.904900 6.062100 -16.964800 -0.586498 -5.074075 -4.983891 -10.917279 -2.163000 -13.335885 -2.179497 3.032655 -0.238705 -7.954700 0.702900 -1.986700 16.704498 -2.180585 -19.395721 40.900171 -41.668637 -25.585417 1.324604 -4.072958 -9.590246 -7.125000 0.000000 0.000000 -28.342253 9.152179 -37.693921 -21.084275 33.334248 -14.749327 -2.412905 1.253226 -9.926382 7.125000 0.000000 0.000000 
8.864593 17.139619 -33.123293 13.894429 2.779996 10.875513 -28.831508 7.425067 -32.925496 4.453806 13.701247 42.596089 0.424161 -8.716214 0.866360 2.078600 -9.028000 -25.883000 -0.838786 8.462992 -34.343796 -6.373723 -16.350930 49.040465 -0.404733 -5.024345 -19.345646 -0.795500 5.692900 -15.895900 -0.588678 -5.233857 -4.928888 -10.992065 -2.231569 -12.944006 -2.286929 3.454742 -0.107222 -8.044500 0.857800 -1.543700 16.621806 -2.255391 -20.147467 41.298355 -41.860561 -25.935744 1.319660 -4.060643 -9.541940 -7.125000 0.000000 0.000000 -28.507025 8.861981 -38.132351 -21.392173 33.544550 -15.010418 -2.410171 1.302185 -9.310788 7.125000 0.000000 0.000000 
8.792717 17.130886 -33.126907 14.278676 3.217569 10.778183 -28.908506 7.288775 -32.926183 4.501349 13.738117 42.767103 0.407100 -8.949613 1.351799 2.201100 -9.272900 -26.652900 -0.996070 8.360538 -34.293347 -6.510629 -16.456671 49.520493 -0.458160 -4.952226 -19.742847 -0.706900 5.373800 -14.977800 -0.633057 -5.190619 -4.986723 -11.277034 -2.248053 -13.520154 -2.455538 3.392704 -0.043196 -8.299100 0.875500 -1.762500 16.486074 -2.690334 -19.739926 41.802306 -42.145136 -26.321896 1.308576 -4.027390 -9.534380 -7.125000 0.000000 0.000000 -28.199038 8.435738 -36.814983 -21.807735 33.750035 -15.358586 -2.391907 1.370736 -8.929483 7.125000 0.000000 0.000000 
8.720941 17.119642 -33.134034 14.602696 3.528053 10.857516 -29.008825 7.222303 -33.152928 4.546111 13.798703 42.953050 0.400778 -9.086931 1.530630 2.777900 -10.326500 -30.040600 -1.125876 8.397457 -34.411087 -6.628733 -16.562750 49.952579 -0.471355 -5.064302 -20.058739 -0.624200 5.055800 -14.067800 -0.683533 -5.073491 -4.949567 -11.580340 -2.207973 -13.306196 -2.365797 3.678005 0.027284 -8.343300 0.981000 -1.498700 16.668060 -3.229344 -20.358749 42.133389 -42.356839 -26.542599 1.289751 -3.998614 -9.348037 -7.125000 0.000000 0.000000 -28.081094 7.736029 -36.710329 -22.099558 33.820328 -15.663306 -2.402982 1.434095 -8.539011 7.125000 0.000000 0.000000 
8.651474 17.108500 -33.137547 14.483913 4.009631 10.837749 -28.531494 6.993551 -33.283818 4.602360 13.862396 43.165765 0.385863 -9.275079 2.105204 2.689500 -10.174600 -29.544000 -0.680851 8.342220 -34.389182 -6.730247 -16.641221 50.344388 -0.460819 -5.344757 -20.423481 -0.565500 4.816300 -13.385500 -0.697081 -5.085276 -4.980347 -11.884500 -2.259525 -13.480335 -2.405541 3.847682 0.355308 -8.439100 1.116800 -1.368100 16.444496 -3.203629 -19.924247 42.835007 -42.694108 -27.126304 1.288960 -3.977116 -9.467691 -7.125000 0.000000 0.000000 -27.899070 7.815662 -36.643191 -22.386590 34.024028 -15.926648 -2.429986 1.469034 -7.560363 7.125000 0.000000 0.000000 
8.583412 17.095550 -33.137849 14.475850 4.569207 10.716084 -28.110542 6.733338 -33.266665 4.671462 13.928726 43.417520 0.363817 -9.525727 2.888634 2.104500 -9.080500 -26.047600 -0.324328 8.035261 -34.254467 -6.831638 -16.714101 50.714429 -0.489566 -5.391604 -20.762628 -0.537000 4.695400 -13.041900 -0.715952 -5.098221 -4.949009 -12.121355 -2.284603 -13.501824 -2.152367 4.179234 0.094842 -8.199900 1.280000 -1.596800 16.281180 -3.236737 -19.906939 43.464574 -43.026338 -27.673376 1.295287 -3.971307 -9.749155 -7.125000 0.000000 0.000000 -27.796084 7.733223 -36.673508 -22.599500 34.189270 -16.163574 -2.450936 1.518971 -6.329920 7.125000 0.000000 0.000000 
8.516354 17.074569 -33.147185 14.900465 5.065342 10.642754 -28.233985 6.535716 -33.294838 4.732374 13.987987 43.651108 0.343066 -9.730274 3.453479 1.919100 -8.695400 -24.847200 -0.511983 7.624118 -34.234768 -6.938841 -16.796332 51.072349 -0.579198 -5.124312 -21.146218 -0.463100 4.365100 -12.106100 -0.741262 -5.278149 -4.924264 -12.165670 -2.356191 -13.448655 -2.113273 4.617694 -0.028776 -8.135900 1.470600 -1.532600 16.153347 -3.275473 -20.238744 43.889903 -43.230549 -28.057288 1.301169 -3.974992 -9.944791 -7.125000 0.000000 0.000000 -27.842922 7.575318 -36.555603 -22.955905 34.444740 -16.451678 -2.424621 1.596914 -5.578208 7.125000 0.000000 0.000000 
8.446987 17.065233 -33.155818 15.096804 5.631719 10.571371 -28.047306 6.138367 -33.279744 4.770118 14.033181 43.804355 0.311877 -9.758281 4.500395 1.299800 -7.223000 -20.377700 -0.406300 7.287206 -34.150244 -7.033771 -16.862380 51.402122 -0.643854 -5.033278 -21.575499 -0.370900 3.911900 -10.828800 -0.751186 -5.440236 -4.901823 -12.272358 -2.435926 -13.324152 -2.163344 5.034047 0.059931 -8.184700 1.660600 -1.308500 15.990195 -3.340482 -20.543053 44.334372 -43.430422 -28.433732 1.291979 -3.954356 -9.831459 -7.125000 0.000000 0.000000 -27.879466 7.480435 -36.506406 -23.318792 34.697871 -16.737662 -2.398256 1.670059 -5.099176 7.125000 0.000000 0.000000 
8.372400 17.063727 -33.155215 15.195999 6.320710 10.465531 -27.701997 5.666051 -33.132830 4.793744 14.061740 43.900580 0.289571 -9.683259 5.436920 0.869300 -5.944900 -16.624700 -0.117427 6.902491 -33.952180 -7.125996 -16.922704 51.730605 -0.687310 -5.060491 -21.991848 -0.303300 3.540800 -9.788300 -0.749234 -5.570203 -4.862024 -12.249949 -2.495247 -13.322596 -2.098113 5.677350 -0.331482 -8.074100 1.964300 -1.655400 15.700704 -3.374913 -20.657999 44.785518 -43.663606 -28.854314 1.287787 -3.934237 -9.673569 -7.125000 0.000000 0.000000 -27.880821 7.463548 -36.372925 -23.668387 35.003072 -17.036878 -2.369163 1.752985 -4.601632 7.125000 0.000000 0.000000 
8.295705 17.048067 -33.159130 15.485949 6.848936 10.400232 -27.652045 5.453957 -33.103964 4.818817 14.086063 43.996701 0.276045 -9.693090 6.084757 0.825100 -5.795600 -16.192500 -0.088712 6.635431 -33.890225 -7.226092 -16.994145 52.076016 -0.750133 -4.994872 -22.424861 -0.230200 3.088200 -8.524400 -0.753881 -5.667670 -4.865034 -12.126277 -2.526721 -13.504122 -2.163166 6.090306 -0.524462 -8.115600 2.163200 -1.828700 15.376765 -3.385598 -20.483204 45.390679 -43.933254 -29.448117 1.300069 -3.937000 -9.765338 -7.125000 0.000000 0.000000 -27.831672 7.332463 -35.944627 -24.081868 35.298743 -17.357776 -2.332512 1.827031 -3.890049 7.125000 0.000000 0.000000 
8.220817 17.030399 -33.166760 15.632723 7.260140 10.390037 -27.510256 5.370219 -33.245694 4.844446 14.119014 44.095661 0.268393 -9.761109 6.697005 0.845900 -5.866200 -16.396700 0.067133 6.489289 -33.952204 -7.325077 -17.067804 52.430267 -0.781571 -5.077671 -22.806453 -0.189300 2.802300 -7.728800 -0.767131 -5.609337 -4.874211 -12.236016 -2.511989 -13.627656 -2.282204 6.278440 -0.429829 -8.289900 2.254800 -1.719000 15.246416 -3.628819 -20.315770 46.020080 -44.212163 -30.004020 1.302601 -3.935531 -9.825941 -7.125000 0.000000 0.000000 -27.682759 6.884013 -35.208988 -24.520359 35.485324 -17.689093 -2.259791 1.940369 -3.344116 7.125000 0.000000 0.000000 
8.149744 17.019557 -33.168868 15.807336 7.759242 10.349244 -27.415155 5.237139 -33.289374 4.875002 14.152585 44.211980 0.261477 -9.852293 7.249635 0.775000 -5.620800 -15.688100 0.193318 6.124466 -33.925124 -7.427146 -17.134703 52.779020 -0.821058 -5.074453 -23.121522 -0.160300 2.579600 -7.110500 -0.820510 -5.424318 -4.858304 -12.769421 -2.479090 -13.692807 -2.325960 6.236416 -0.354523 -8.477900 2.237300 -1.711700 15.360109 -4.294800 -20.247902 46.488557 -44.490784 -30.319763 1.290392 -3.900311 -9.692759 -7.125000 0.000000 0.000000 -27.318995 6.178653 -34.243486 -24.978713 35.589561 -18.105162 -2.204470 2.093427 -3.164495 7.125000 0.000000 0.000000 
